<svg width="162" height="38" viewBox="0 0 162 38" fill="none" xmlns="http://www.w3.org/2000/svg">
<path d="M16.929 26.68V31H2.881V7.688H8.289V26.68H16.929Z" fill="#4F378B"/>
<path d="M57.625 18.9919C57.625 20.6897 57.1043 22.2693 56.0629 23.7307C55.0405 25.1921 53.592 26.4654 51.7175 27.5507C49.843 28.6253 47.5803 29.4688 44.9295 30.0813C42.2976 30.6938 39.3722 31 36.1534 31C32.9346 31 29.9997 30.6938 27.3489 30.0813C24.6981 29.4688 22.426 28.6253 20.5325 27.5507C18.658 26.4654 17.2001 25.1921 16.1587 23.7307C15.1362 22.2693 14.625 20.6897 14.625 18.9919C14.625 17.2942 15.1362 15.7146 16.1587 14.2532C17.2001 12.7918 18.658 11.5238 20.5325 10.4493C22.426 9.37475 24.6981 8.53123 27.3489 7.91874C29.9997 7.30625 32.9346 7 36.1534 7C39.3722 7 42.2976 7.31162 44.9295 7.93486C47.5803 8.54735 49.843 9.39087 51.7175 10.4654C53.592 11.54 55.0405 12.8079 56.0629 14.2693C57.1043 15.7307 57.625 17.3049 57.625 18.9919ZM47.798 18.9919C47.798 17.8314 47.533 16.7891 47.0028 15.865C46.4726 14.9302 45.7058 14.1404 44.7023 13.4956C43.7177 12.8509 42.5059 12.3566 41.0669 12.0128C39.6279 11.6689 37.99 11.497 36.1534 11.497C34.2978 11.497 32.6411 11.6689 31.1831 12.0128C29.7441 12.3566 28.5228 12.8509 27.5193 13.4956C26.5347 14.1404 25.7774 14.9302 25.2472 15.865C24.717 16.7891 24.4519 17.8314 24.4519 18.9919C24.4519 20.1632 24.717 21.2163 25.2472 22.1511C25.7774 23.0752 26.5347 23.8596 27.5193 24.5044C28.5228 25.1491 29.7441 25.6434 31.1831 25.9872C32.6411 26.3204 34.2978 26.4869 36.1534 26.4869C37.99 26.4869 39.6279 26.3204 41.0669 25.9872C42.5059 25.6434 43.7177 25.1491 44.7023 24.5044C45.7058 23.8596 46.4726 23.0752 47.0028 22.1511C47.533 21.2163 47.798 20.1632 47.798 18.9919Z" fill="#4F378B"/>
<path d="M73.081 18.92H81.369V28.76C80.1743 29.6347 78.8997 30.2693 77.545 30.664C76.201 31.0587 74.793 31.256 73.321 31.256C71.401 31.256 69.6517 30.9573 68.073 30.36C66.505 29.752 65.161 28.92 64.041 27.864C62.921 26.7973 62.057 25.5387 61.449 24.088C60.841 22.6267 60.537 21.0427 60.537 19.336C60.537 17.5973 60.825 16.0027 61.401 14.552C61.977 13.0907 62.7983 11.832 63.865 10.776C64.9423 9.72 66.2383 8.89867 67.753 8.312C69.2783 7.72533 70.9797 7.432 72.857 7.432C73.8277 7.432 74.7397 7.512 75.593 7.672C76.4463 7.832 77.2303 8.05067 77.945 8.328C78.6703 8.60533 79.3317 8.936 79.929 9.32C80.5263 9.704 81.0597 10.12 81.529 10.568L79.961 12.952C79.7157 13.3253 79.3957 13.5547 79.001 13.64C78.617 13.7253 78.201 13.6293 77.753 13.352C77.3263 13.096 76.921 12.8773 76.537 12.696C76.1637 12.504 75.7797 12.3493 75.385 12.232C74.9903 12.1147 74.5743 12.0293 74.137 11.976C73.6997 11.9227 73.209 11.896 72.665 11.896C71.6517 11.896 70.7397 12.0773 69.929 12.44C69.1183 12.792 68.425 13.2933 67.849 13.944C67.2837 14.5947 66.8463 15.3787 66.537 16.296C66.2277 17.2027 66.073 18.216 66.073 19.336C66.073 20.5733 66.2437 21.672 66.585 22.632C66.9263 23.592 67.4063 24.4027 68.025 25.064C68.6543 25.7253 69.401 26.232 70.265 26.584C71.1397 26.9253 72.105 27.096 73.161 27.096C73.8117 27.096 74.3983 27.032 74.921 26.904C75.4543 26.776 75.9717 26.6053 76.473 26.392V22.856H74.169C73.8277 22.856 73.561 22.7653 73.369 22.584C73.177 22.4027 73.081 22.1733 73.081 21.896V18.92ZM108.186 19.336C108.186 21.0213 107.893 22.5893 107.306 24.04C106.73 25.4907 105.914 26.7547 104.858 27.832C103.802 28.8987 102.527 29.736 101.034 30.344C99.5513 30.952 97.9033 31.256 96.09 31.256C94.2767 31.256 92.6233 30.952 91.13 30.344C89.6367 29.736 88.3567 28.8987 87.29 27.832C86.234 26.7547 85.4127 25.4907 84.826 24.04C84.25 22.5893 83.962 21.0213 83.962 19.336C83.962 17.6507 84.25 16.0827 84.826 14.632C85.4127 13.1813 86.234 11.9227 87.29 10.856C88.3567 9.78933 89.6367 8.952 91.13 8.344C92.6233 7.736 94.2767 7.432 96.09 7.432C97.9033 7.432 99.5513 7.74133 101.034 8.36C102.527 8.968 103.802 9.80533 104.858 10.872C105.914 11.9387 106.73 13.1973 107.306 14.648C107.893 16.0987 108.186 17.6613 108.186 19.336ZM102.65 19.336C102.65 18.184 102.501 17.1493 102.202 16.232C101.903 15.304 101.471 14.52 100.906 13.88C100.351 13.24 99.6687 12.7493 98.858 12.408C98.0473 12.0667 97.1247 11.896 96.09 11.896C95.0447 11.896 94.1113 12.0667 93.29 12.408C92.4793 12.7493 91.7913 13.24 91.226 13.88C90.6713 14.52 90.2447 15.304 89.946 16.232C89.6473 17.1493 89.498 18.184 89.498 19.336C89.498 20.4987 89.6473 21.544 89.946 22.472C90.2447 23.3893 90.6713 24.168 91.226 24.808C91.7913 25.448 92.4793 25.9387 93.29 26.28C94.1113 26.6107 95.0447 26.776 96.09 26.776C97.1247 26.776 98.0473 26.6107 98.858 26.28C99.6687 25.9387 100.351 25.448 100.906 24.808C101.471 24.168 101.903 23.3893 102.202 22.472C102.501 21.544 102.65 20.4987 102.65 19.336Z" fill="#4F378B"/>
<path d="M110.588 29.512C110.588 29.28 110.628 29.064 110.708 28.864C110.796 28.656 110.912 28.476 111.056 28.324C111.208 28.172 111.384 28.052 111.584 27.964C111.792 27.876 112.012 27.832 112.244 27.832C112.476 27.832 112.692 27.876 112.892 27.964C113.1 28.052 113.28 28.172 113.432 28.324C113.584 28.476 113.704 28.656 113.792 28.864C113.88 29.064 113.924 29.28 113.924 29.512C113.924 29.752 113.88 29.972 113.792 30.172C113.704 30.372 113.584 30.548 113.432 30.7C113.28 30.852 113.1 30.968 112.892 31.048C112.692 31.136 112.476 31.18 112.244 31.18C112.012 31.18 111.792 31.136 111.584 31.048C111.384 30.968 111.208 30.852 111.056 30.7C110.912 30.548 110.796 30.372 110.708 30.172C110.628 29.972 110.588 29.752 110.588 29.512ZM125.608 21.16C125.528 21.264 125.452 21.344 125.38 21.4C125.308 21.456 125.204 21.484 125.068 21.484C124.932 21.484 124.788 21.436 124.636 21.34C124.492 21.244 124.316 21.14 124.108 21.028C123.908 20.908 123.664 20.8 123.376 20.704C123.088 20.608 122.728 20.56 122.296 20.56C121.736 20.56 121.244 20.66 120.82 20.86C120.404 21.06 120.052 21.348 119.764 21.724C119.484 22.092 119.272 22.544 119.128 23.08C118.992 23.608 118.924 24.204 118.924 24.868C118.924 25.556 119 26.168 119.152 26.704C119.304 27.24 119.52 27.692 119.8 28.06C120.088 28.428 120.432 28.708 120.832 28.9C121.24 29.092 121.696 29.188 122.2 29.188C122.696 29.188 123.1 29.128 123.412 29.008C123.724 28.888 123.984 28.756 124.192 28.612C124.4 28.468 124.576 28.336 124.72 28.216C124.872 28.096 125.032 28.036 125.2 28.036C125.408 28.036 125.568 28.116 125.68 28.276L126.412 29.224C126.116 29.584 125.788 29.888 125.428 30.136C125.068 30.384 124.688 30.588 124.288 30.748C123.888 30.9 123.472 31.008 123.04 31.072C122.608 31.144 122.172 31.18 121.732 31.18C120.972 31.18 120.26 31.04 119.596 30.76C118.94 30.472 118.364 30.06 117.868 29.524C117.38 28.98 116.992 28.32 116.704 27.544C116.424 26.76 116.284 25.868 116.284 24.868C116.284 23.964 116.412 23.128 116.668 22.36C116.924 21.584 117.296 20.916 117.784 20.356C118.28 19.796 118.892 19.36 119.62 19.048C120.348 18.728 121.188 18.568 122.14 18.568C123.028 18.568 123.808 18.712 124.48 19C125.16 19.288 125.764 19.696 126.292 20.224L125.608 21.16ZM133.869 18.568C134.773 18.568 135.589 18.716 136.317 19.012C137.053 19.308 137.677 19.728 138.189 20.272C138.709 20.816 139.109 21.476 139.389 22.252C139.669 23.028 139.809 23.9 139.809 24.868C139.809 25.836 139.669 26.708 139.389 27.484C139.109 28.26 138.709 28.924 138.189 29.476C137.677 30.02 137.053 30.44 136.317 30.736C135.589 31.032 134.773 31.18 133.869 31.18C132.957 31.18 132.133 31.032 131.397 30.736C130.669 30.44 130.045 30.02 129.525 29.476C129.005 28.924 128.605 28.26 128.325 27.484C128.045 26.708 127.905 25.836 127.905 24.868C127.905 23.9 128.045 23.028 128.325 22.252C128.605 21.476 129.005 20.816 129.525 20.272C130.045 19.728 130.669 19.308 131.397 19.012C132.133 18.716 132.957 18.568 133.869 18.568ZM133.869 29.164C134.973 29.164 135.793 28.796 136.329 28.06C136.873 27.316 137.145 26.256 137.145 24.88C137.145 23.504 136.873 22.444 136.329 21.7C135.793 20.948 134.973 20.572 133.869 20.572C132.749 20.572 131.917 20.948 131.373 21.7C130.829 22.444 130.557 23.504 130.557 24.88C130.557 26.256 130.829 27.316 131.373 28.06C131.917 28.796 132.749 29.164 133.869 29.164ZM142.588 31V18.76H144.148C144.5 18.76 144.724 18.924 144.82 19.252L144.988 20.32C145.212 20.064 145.444 19.832 145.684 19.624C145.924 19.408 146.18 19.224 146.452 19.072C146.732 18.912 147.028 18.788 147.34 18.7C147.66 18.612 148.004 18.568 148.372 18.568C148.764 18.568 149.124 18.624 149.452 18.736C149.78 18.848 150.068 19.008 150.316 19.216C150.572 19.424 150.792 19.676 150.976 19.972C151.16 20.268 151.312 20.6 151.432 20.968C151.616 20.544 151.848 20.18 152.128 19.876C152.408 19.572 152.72 19.324 153.064 19.132C153.408 18.94 153.772 18.8 154.156 18.712C154.548 18.616 154.944 18.568 155.344 18.568C156 18.568 156.584 18.672 157.096 18.88C157.616 19.088 158.052 19.392 158.404 19.792C158.764 20.184 159.036 20.668 159.22 21.244C159.404 21.82 159.496 22.476 159.496 23.212V31H156.916V23.212C156.916 22.348 156.728 21.7 156.352 21.268C155.984 20.828 155.436 20.608 154.708 20.608C154.38 20.608 154.072 20.664 153.784 20.776C153.496 20.888 153.244 21.052 153.028 21.268C152.812 21.484 152.64 21.756 152.512 22.084C152.392 22.404 152.332 22.78 152.332 23.212V31H149.752V23.212C149.752 22.316 149.572 21.66 149.212 21.244C148.852 20.82 148.324 20.608 147.628 20.608C147.148 20.608 146.704 20.732 146.296 20.98C145.888 21.22 145.512 21.552 145.168 21.976V31H142.588Z" fill="#4A4459"/>
</svg>
