<svg width="22" height="29" viewBox="0 0 22 29" fill="none" xmlns="http://www.w3.org/2000/svg">
<path d="M11 21.6667C10.2928 21.6667 9.61448 21.3857 9.11438 20.8856C8.61429 20.3855 8.33333 19.7073 8.33333 19C8.33333 17.52 9.52 16.3333 11 16.3333C11.7072 16.3333 12.3855 16.6143 12.8856 17.1144C13.3857 17.6145 13.6667 18.2928 13.6667 19C13.6667 19.7073 13.3857 20.3855 12.8856 20.8856C12.3855 21.3857 11.7072 21.6667 11 21.6667ZM19 25.6667V12.3333H3V25.6667H19ZM19 9.66668C19.7072 9.66668 20.3855 9.94763 20.8856 10.4477C21.3857 10.9478 21.6667 11.6261 21.6667 12.3333V25.6667C21.6667 26.3739 21.3857 27.0522 20.8856 27.5523C20.3855 28.0524 19.7072 28.3333 19 28.3333H3C2.29276 28.3333 1.61448 28.0524 1.11438 27.5523C0.614284 27.0522 0.333333 26.3739 0.333333 25.6667V12.3333C0.333333 10.8533 1.52 9.66668 3 9.66668H4.33333V7.00001C4.33333 5.2319 5.03571 3.53621 6.28595 2.28597C7.5362 1.03572 9.23189 0.333344 11 0.333344C11.8755 0.333344 12.7424 0.505782 13.5512 0.840813C14.3601 1.17584 15.095 1.66691 15.714 2.28597C16.3331 2.90502 16.8242 3.63995 17.1592 4.44879C17.4942 5.25762 17.6667 6.12453 17.6667 7.00001V9.66668H19ZM11 3.00001C9.93913 3.00001 8.92172 3.42144 8.17157 4.17158C7.42143 4.92173 7 5.93914 7 7.00001V9.66668H15V7.00001C15 5.93914 14.5786 4.92173 13.8284 4.17158C13.0783 3.42144 12.0609 3.00001 11 3.00001Z" fill="#604080"/>
</svg>
