<svg width="31" height="30" viewBox="0 0 31 30" fill="none" xmlns="http://www.w3.org/2000/svg">
<path fill-rule="evenodd" clip-rule="evenodd" d="M10.7762 4.03756L4.92623 9.89131V9.87881C4.8337 9.97275 4.76066 10.0841 4.71132 10.2063C4.66198 10.3286 4.63731 10.4595 4.63873 10.5913V19.4088C4.63873 19.6838 4.73873 19.9338 4.92623 20.1213L10.7637 25.9626C10.9512 26.1501 11.2137 26.2501 11.4762 26.2501H20.3012C20.5762 26.2501 20.8262 26.1501 21.0137 25.9626L26.8512 20.1213C26.9438 20.0274 27.0168 19.9161 27.0661 19.7938C27.1155 19.6715 27.1402 19.5407 27.1387 19.4088V10.5913C27.1387 10.3163 27.0387 10.0663 26.8512 9.87881L21.0137 4.03756C20.9198 3.94503 20.8085 3.87199 20.6862 3.82265C20.5639 3.77331 20.4331 3.74864 20.3012 3.75006H11.4887C11.2137 3.75006 10.9637 3.85006 10.7762 4.03756ZM15.8887 8.75006C16.2203 8.75006 16.5382 8.88175 16.7726 9.11617C17.007 9.35059 17.1387 9.66854 17.1387 10.0001V16.2501C17.1387 16.5816 17.007 16.8995 16.7726 17.1339C16.5382 17.3684 16.2203 17.5001 15.8887 17.5001C15.5572 17.5001 15.2393 17.3684 15.0048 17.1339C14.7704 16.8995 14.6387 16.5816 14.6387 16.2501V10.0001C14.6387 9.66854 14.7704 9.35059 15.0048 9.11617C15.2393 8.88175 15.5572 8.75006 15.8887 8.75006ZM14.6387 20.0001C14.6387 19.6685 14.7704 19.3506 15.0048 19.1162C15.2393 18.8818 15.5572 18.7501 15.8887 18.7501H15.8987C16.2303 18.7501 16.5482 18.8818 16.7826 19.1162C17.017 19.3506 17.1487 19.6685 17.1487 20.0001C17.1487 20.3316 17.017 20.6495 16.7826 20.8839C16.5482 21.1184 16.2303 21.2501 15.8987 21.2501H15.8887C15.5572 21.2501 15.2393 21.1184 15.0048 20.8839C14.7704 20.6495 14.6387 20.3316 14.6387 20.0001Z" fill="#EA3535"/>
</svg>
