<svg width="31" height="30" viewBox="0 0 31 30" fill="none" xmlns="http://www.w3.org/2000/svg">
<path d="M15.8886 1.875C19.3698 1.875 22.7085 3.25791 25.1701 5.7195C27.6317 8.18109 29.0146 11.5197 29.0146 15.0009C29.0146 18.4822 27.6317 21.8208 25.1701 24.2824C22.7085 26.744 19.3698 28.1269 15.8886 28.1269C12.4074 28.1269 9.06878 26.744 6.60719 24.2824C4.1456 21.8208 2.7627 18.4822 2.7627 15.0009C2.7627 11.5197 4.1456 8.18109 6.60719 5.7195C9.06878 3.25791 12.4074 1.875 15.8886 1.875ZM17.8574 9.93375C18.8324 9.93375 19.6236 9.25688 19.6236 8.25375C19.6236 7.25062 18.8305 6.57375 17.8574 6.57375C16.8824 6.57375 16.0949 7.25062 16.0949 8.25375C16.0949 9.25688 16.8824 9.93375 17.8574 9.93375ZM18.2005 20.4844C18.2005 20.2838 18.2699 19.7625 18.2305 19.4662L16.6893 21.24C16.3705 21.5756 15.9711 21.8081 15.7836 21.7463C15.6986 21.715 15.6275 21.6543 15.5831 21.5753C15.5388 21.4962 15.5241 21.4039 15.5418 21.315L18.1105 13.2C18.3205 12.1706 17.743 11.2312 16.5186 11.1112C15.2268 11.1112 13.3255 12.4219 12.1686 14.085C12.1686 14.2838 12.1311 14.7787 12.1705 15.075L13.7099 13.2994C14.0286 12.9675 14.3999 12.7331 14.5874 12.7969C14.6798 12.83 14.7555 12.8981 14.7982 12.9864C14.841 13.0748 14.8474 13.1763 14.8161 13.2694L12.2699 21.345C11.9755 22.29 12.5324 23.2163 13.8824 23.4263C15.8699 23.4263 17.0436 22.1475 18.2024 20.4844H18.2005Z" fill="#008E98"/>
</svg>
