<svg width="31" height="30" viewBox="0 0 31 30" fill="none" xmlns="http://www.w3.org/2000/svg">
<path d="M17.8021 4.46998C16.6824 2.43855 13.7628 2.43855 12.6431 4.46998L2.73993 22.4143C1.65672 24.3782 3.07636 26.7836 5.31993 26.7836H25.1221C27.3646 26.7836 28.7864 24.3782 27.7021 22.4143L17.8021 4.46998ZM16.2935 21.4286C16.2935 21.7127 16.1806 21.9852 15.9797 22.1862C15.7788 22.3871 15.5062 22.5 15.2221 22.5C14.9379 22.5 14.6654 22.3871 14.4645 22.1862C14.2635 21.9852 14.1506 21.7127 14.1506 21.4286C14.1506 21.1444 14.2635 20.8719 14.4645 20.6709C14.6654 20.47 14.9379 20.3571 15.2221 20.3571C15.5062 20.3571 15.7788 20.47 15.9797 20.6709C16.1806 20.8719 16.2935 21.1444 16.2935 21.4286ZM14.4185 17.9464V10.9821C14.4185 10.769 14.5032 10.5646 14.6539 10.4139C14.8046 10.2632 15.009 10.1786 15.2221 10.1786C15.4352 10.1786 15.6396 10.2632 15.7903 10.4139C15.941 10.5646 16.0256 10.769 16.0256 10.9821V17.9464C16.0256 18.1595 15.941 18.3639 15.7903 18.5146C15.6396 18.6653 15.4352 18.75 15.2221 18.75C15.009 18.75 14.8046 18.6653 14.6539 18.5146C14.5032 18.3639 14.4185 18.1595 14.4185 17.9464Z" fill="#BF6A02"/>
</svg>
