<svg width="23" height="16" viewBox="0 0 23 16" fill="none" xmlns="http://www.w3.org/2000/svg">
<path d="M0.986547 13.5743C0.803291 13.8126 0.711664 14.107 0.711664 14.4578C0.708806 14.6216 0.731713 14.7844 0.77898 14.9363C0.826247 15.0883 0.896879 15.226 0.986547 15.3412V13.5743ZM0.986547 13.5743C1.07514 13.4578 1.18111 13.3659 1.29797 13.3045M0.986547 13.5743L1.29797 13.3045M1.29797 13.3045C1.41482 13.243 1.5401 13.2133 1.66612 13.217L1.29797 13.3045ZM1.66612 15.5188V15.5187L1.66082 15.5188C1.56721 15.5216 1.47244 15.4997 1.38163 15.4519C1.29047 15.404 1.20411 15.3304 1.12967 15.2324L1.12968 15.2324L1.12839 15.2308C1.05316 15.1341 0.992054 15.0161 0.950632 14.8829C0.909228 14.7499 0.888872 14.6061 0.891406 14.4609L0.891433 14.4609V14.4578C0.891433 14.1398 0.973841 13.8857 1.12904 13.6839L1.12904 13.6839L1.12967 13.6831C1.20411 13.5852 1.29047 13.5115 1.38163 13.4636C1.47244 13.4159 1.56721 13.3939 1.66082 13.3967L1.66082 13.3968H1.66612H12.1651C12.373 13.3968 12.5496 13.4843 12.7031 13.6839L12.7036 13.6846C12.7787 13.7813 12.8397 13.8994 12.881 14.0326C12.9222 14.1656 12.9425 14.3093 12.9398 14.4545L12.9398 14.4545V14.4578C12.9398 14.7759 12.8576 15.0301 12.703 15.2318L12.7025 15.2324C12.628 15.3305 12.5415 15.4042 12.4502 15.4521C12.3593 15.4999 12.2644 15.5217 12.1706 15.5189L12.1706 15.5188H12.1651H1.66612Z" fill="#4A4459" stroke="#F6EFFF" stroke-width="0.359539"/>
<path d="M19.6681 8.381L19.7952 8.25388L19.6681 8.12677L16.0703 4.52904C16.0702 4.52897 16.0702 4.52889 16.0701 4.52882C15.9744 4.43231 15.8995 4.31731 15.8498 4.19084C15.8001 4.06426 15.7767 3.92887 15.7811 3.79296L15.7815 3.79297L15.7811 3.78123C15.7767 3.64531 15.8001 3.50992 15.8498 3.38335C15.8994 3.25699 15.9743 3.14207 16.0699 3.04562C16.1663 2.95013 16.2812 2.87528 16.4075 2.82566C16.5341 2.77593 16.6694 2.75257 16.8054 2.75701L16.8053 2.7574L16.8171 2.75701C16.953 2.75257 17.0884 2.77593 17.215 2.82566C17.3414 2.87533 17.4564 2.95028 17.5529 3.04591C17.553 3.046 17.5531 3.04609 17.5532 3.04619L22.0194 7.51246L22.0194 7.51251L22.023 7.51589C22.1232 7.61075 22.2029 7.72511 22.2573 7.85194C22.3116 7.97876 22.3394 8.11537 22.339 8.25335L22.339 8.25388C22.339 8.53396 22.2362 8.7786 22.0194 8.99531L17.5532 13.4616C17.5531 13.4617 17.553 13.4618 17.5529 13.4619C17.4564 13.5575 17.3414 13.6324 17.215 13.6821C17.0884 13.7318 16.953 13.7552 16.8171 13.7508L16.8171 13.7507L16.8112 13.7507C16.5026 13.7507 16.2605 13.6527 16.0701 13.4624C15.9744 13.3659 15.8995 13.2509 15.8498 13.1244C15.8001 12.9978 15.7767 12.8625 15.7811 12.7265L15.7815 12.7266L15.7811 12.7148C15.7767 12.5789 15.8001 12.4435 15.8498 12.3169C15.8995 12.1905 15.9744 12.0755 16.0701 11.979C16.0701 11.9789 16.0702 11.9788 16.0703 11.9787L19.6681 8.381Z" fill="#4A4459" stroke="#F6EFFF" stroke-width="0.359539"/>
<path d="M1.66589 3.11102V3.11093L1.66037 3.1111C1.56681 3.11398 1.47208 3.09219 1.3813 3.04461C1.29015 2.99685 1.20379 2.92344 1.1293 2.82571L1.12931 2.8257L1.12817 2.82424C1.05283 2.72748 0.991666 2.60925 0.95024 2.47593C0.908831 2.34266 0.888531 2.19871 0.891181 2.05328L0.891211 2.05328V2.05001C0.891211 1.73111 0.973675 1.47662 1.12881 1.27495L1.12881 1.27495L1.1293 1.27431C1.20379 1.17658 1.29015 1.10317 1.3813 1.05541C1.47208 1.00783 1.56681 0.98604 1.66037 0.988919L1.66036 0.989004H1.66589H12.1649V0.989097L12.1707 0.988912C12.2643 0.985906 12.3592 1.00763 12.4501 1.05521C12.5414 1.10296 12.6278 1.17644 12.7024 1.27431L12.7024 1.27431L12.7034 1.27558C12.7786 1.37245 12.8396 1.49074 12.8809 1.62407C12.9222 1.75735 12.9424 1.90125 12.9396 2.0466L12.9395 2.0466L12.9396 2.05342C12.9424 2.19877 12.9222 2.34267 12.8809 2.47595C12.8396 2.60928 12.7786 2.72757 12.7034 2.82443L12.7024 2.82571C12.6278 2.92358 12.5414 2.99706 12.4501 3.04481C12.3592 3.09238 12.2643 3.11411 12.1707 3.11111L12.1707 3.11102H12.1649H1.66589Z" fill="#4A4459" stroke="#F6EFFF" stroke-width="0.359539"/>
<path d="M1.17665 7.36921C0.866769 7.60744 0.711828 7.90233 0.711828 8.25388C0.706996 8.41771 0.745731 8.58056 0.825659 8.73247C0.905586 8.88438 1.02502 9.02214 1.17665 9.13731V7.36921ZM1.17665 7.36921C1.3266 7.25287 1.50585 7.16128 1.70345 7.10005M1.17665 7.36921L1.70345 7.10005M1.70345 7.10005C1.90104 7.03881 2.11281 7.00923 2.32579 7.01311L1.70345 7.10005ZM2.32579 9.31489V9.31486L2.32266 9.31492C2.12813 9.31831 1.9354 9.29108 1.75663 9.23549C1.57781 9.17988 1.41832 9.09758 1.28704 8.99543L1.28705 8.99542L1.28539 8.99416C1.15238 8.89313 1.05116 8.77498 0.984751 8.64877C0.91853 8.52291 0.887644 8.39057 0.891519 8.25918L0.891597 8.25918V8.25388C0.891597 7.96494 1.01493 7.72029 1.28622 7.51173L1.28622 7.51173L1.28685 7.51124C1.41827 7.40928 1.57783 7.32717 1.75666 7.27176C1.93543 7.21636 2.1281 7.18931 2.32252 7.19285L2.32252 7.19288H2.32579H15.2375V7.19291L15.2409 7.19284C15.4356 7.18915 15.6285 7.21613 15.8076 7.27153C15.9866 7.32695 16.1465 7.40914 16.278 7.51124L16.278 7.51124L16.2793 7.51222C16.4122 7.61345 16.5133 7.73179 16.5794 7.85816C16.6454 7.98417 16.676 8.11663 16.6718 8.24811L16.6717 8.24811V8.25388C16.6717 8.54211 16.5488 8.78642 16.2784 8.99498L16.2778 8.99544C16.1464 9.09772 15.9867 9.1801 15.8076 9.23571C15.6285 9.29131 15.4355 9.31846 15.2408 9.31492V9.31489H15.2375H2.32579Z" fill="#4A4459" stroke="#F6EFFF" stroke-width="0.359539"/>
</svg>
