<svg width="22" height="16" viewBox="0 0 22 16" fill="none" xmlns="http://www.w3.org/2000/svg">
<path d="M1.26205 15.258V15.2579L1.25783 15.258C1.11935 15.2612 0.981686 15.236 0.853278 15.1841C0.72487 15.1321 0.608421 15.0545 0.511067 14.956L0.511076 14.956L0.509482 14.9544C0.410948 14.857 0.333333 14.7406 0.281393 14.6122C0.229452 14.4838 0.204281 14.3461 0.207421 14.2076L0.207469 14.2076V14.2034C0.207469 13.8998 0.308532 13.6534 0.510277 13.4516L0.510279 13.4516L0.511067 13.4508C0.608421 13.3523 0.72487 13.2747 0.853278 13.2227C0.981686 13.1708 1.11935 13.1456 1.25783 13.1488L1.25783 13.1488H1.26205H14.9095C15.2141 13.1488 15.4609 13.25 15.6625 13.4516L15.6632 13.4522C15.7615 13.5497 15.8389 13.6662 15.8907 13.7946L16.0496 13.7305L15.8907 13.7946C15.9424 13.923 15.9674 14.0606 15.9642 14.199L15.9641 14.199V14.2034C15.9641 14.5072 15.8633 14.7537 15.6623 14.9554L15.6618 14.956C15.5643 15.0546 15.4477 15.1323 15.3191 15.1843C15.1905 15.2362 15.0526 15.2613 14.9139 15.258L14.9139 15.258H14.9095H1.26205Z" fill="#4A4459" stroke="#F6EFFF" stroke-width="0.372204"/>
<path d="M17.7555 7.8684L17.6239 8L17.7555 8.13159L21.3529 11.729C21.353 11.7291 21.3531 11.7292 21.3531 11.7293C21.4482 11.8251 21.5227 11.9394 21.572 12.0651C21.6214 12.1908 21.6446 12.3253 21.6402 12.4604L21.6398 12.4604L21.6402 12.4725C21.6446 12.6076 21.6214 12.7421 21.572 12.8678C21.5227 12.9933 21.4483 13.1075 21.3535 13.2033C21.2576 13.2982 21.1435 13.3726 21.018 13.4219C20.8922 13.4713 20.7577 13.4945 20.6226 13.4901L20.6226 13.4897L20.6105 13.4901C20.4754 13.4945 20.3409 13.4713 20.2152 13.4219C20.0895 13.3725 19.9752 13.298 19.8793 13.203C19.8793 13.2029 19.8792 13.2028 19.8791 13.2028L15.4132 8.73688L15.4133 8.73683L15.4096 8.73333C15.31 8.63907 15.2308 8.52543 15.1768 8.39941C15.1228 8.27339 15.0951 8.13766 15.0955 8.00055V8C15.0955 7.72173 15.1976 7.4787 15.4132 7.26311L19.8791 2.7972C19.8792 2.79711 19.8793 2.79702 19.8794 2.79692C19.9753 2.70191 20.0895 2.62744 20.2152 2.57809C20.3409 2.52868 20.4754 2.50548 20.6105 2.50988L20.6105 2.50998H20.6166C20.9236 2.50998 21.1641 2.60743 21.3532 2.79641C21.4482 2.89228 21.5227 3.00652 21.572 3.13215C21.6214 3.25791 21.6446 3.39243 21.6402 3.52747L21.6398 3.52746L21.6402 3.53962C21.6446 3.67466 21.6214 3.80918 21.572 3.93494C21.5227 4.06057 21.4482 4.17482 21.3532 4.27069C21.3531 4.27078 21.353 4.27087 21.3529 4.27097L17.7555 7.8684Z" fill="#4A4459" stroke="#F6EFFF" stroke-width="0.372204"/>
<path d="M1.26177 2.85117V2.85112L1.25737 2.85122C1.11896 2.8545 0.981344 2.82949 0.85294 2.77774C0.724536 2.72598 0.608047 2.64856 0.510604 2.55021L0.510612 2.5502L0.5092 2.54881C0.410537 2.45133 0.332846 2.33471 0.280902 2.20612C0.228957 2.07752 0.203856 1.93965 0.207139 1.801L0.207191 1.801V1.79659C0.207191 1.49203 0.308345 1.24524 0.51 1.04358L0.510001 1.04358L0.510604 1.04297C0.608047 0.944631 0.724536 0.867209 0.85294 0.815451C0.981344 0.763693 1.11896 0.738686 1.25737 0.741962L1.25736 0.742014H1.26177H14.9093V0.742071L14.9139 0.741958C15.0524 0.738538 15.1902 0.763474 15.3188 0.815236C15.4474 0.866999 15.5641 0.944496 15.6617 1.04297L15.6617 1.04298L15.6629 1.04419C15.7614 1.14176 15.8389 1.25841 15.8906 1.38701C15.9424 1.51561 15.9673 1.65342 15.9639 1.792L15.9637 1.79199L15.9639 1.80119C15.9673 1.93976 15.9424 2.07758 15.8906 2.20618C15.8389 2.33477 15.7614 2.45143 15.6629 2.549L15.6617 2.55022C15.5641 2.64869 15.4474 2.72619 15.3188 2.77795C15.1902 2.82971 15.0524 2.85465 14.9139 2.85123L14.9139 2.85117H14.9093H1.26177Z" fill="#4A4459" stroke="#F6EFFF" stroke-width="0.372204"/>
<path d="M0.378683 7.11539C0.140472 7.3536 0.0213664 7.64847 0.0213664 8C0.0176521 8.16381 0.0474283 8.32665 0.10887 8.47855C0.170312 8.63045 0.262125 8.7682 0.378683 8.88336V7.11539ZM0.378683 7.11539C0.49395 6.99906 0.631748 6.90747 0.783641 6.84625M0.378683 7.11539L0.783641 6.84625M0.783641 6.84625C0.935534 6.78502 1.09832 6.75544 1.26205 6.75932L0.783641 6.84625ZM1.26205 9.05458V9.05453L1.25783 9.05462C1.11935 9.05776 0.981687 9.03259 0.853278 8.98065C0.724869 8.92871 0.60842 8.8511 0.511067 8.75256L0.511076 8.75255L0.509482 8.75098C0.410949 8.65362 0.333333 8.53717 0.281393 8.40877C0.229452 8.28036 0.204281 8.14269 0.207421 8.00422L0.207469 8.00422V8C0.207469 7.69544 0.308623 7.44864 0.510277 7.24698L0.510278 7.24699L0.510881 7.24638C0.608324 7.14803 0.724813 7.07061 0.853217 7.01885C0.981621 6.9671 1.11924 6.94209 1.25764 6.94537L1.25764 6.94542H1.26205H11.1875V6.94547L11.1921 6.94536C11.3307 6.94194 11.4685 6.96688 11.5971 7.01864C11.7257 7.0704 11.8423 7.1479 11.9399 7.24637L11.9399 7.24638L11.9411 7.24759C12.0396 7.34516 12.1171 7.46182 12.1689 7.59041C12.2206 7.71901 12.2456 7.85683 12.2421 7.99541L12.2421 7.9954V8C12.2421 8.3038 12.1413 8.5503 11.9403 8.752L11.9397 8.75257C11.8422 8.85123 11.7256 8.92892 11.597 8.98087C11.4684 9.03281 11.3306 9.05791 11.1919 9.05463L11.1919 9.05458H11.1875H1.26205Z" fill="#4A4459" stroke="#F6EFFF" stroke-width="0.372204"/>
</svg>
