<svg width="23" height="23" viewBox="0 0 23 23" fill="none" xmlns="http://www.w3.org/2000/svg">
<path d="M3.10791 5.98894H4.94493M4.94493 5.98894H19.6411M4.94493 5.98894V18.8481C4.94493 19.3353 5.13848 19.8026 5.48298 20.1471C5.82749 20.4916 6.29475 20.6851 6.78195 20.6851H15.9671C16.4543 20.6851 16.9215 20.4916 17.266 20.1471C17.6105 19.8026 17.8041 19.3353 17.8041 18.8481V5.98894M7.70047 5.98894V4.15192C7.70047 3.66471 7.89401 3.19746 8.23852 2.85295C8.58303 2.50844 9.05028 2.3149 9.53749 2.3149H13.2115C13.6987 2.3149 14.166 2.50844 14.5105 2.85295C14.855 3.19746 15.0486 3.66471 15.0486 4.15192V5.98894M9.53749 10.5815V16.0926M13.2115 10.5815V16.0926" stroke="#79747E" stroke-width="1.37777" stroke-linecap="round" stroke-linejoin="round"/>
</svg>
