<svg width="22" height="22" viewBox="0 0 22 22" fill="none" xmlns="http://www.w3.org/2000/svg">
<path d="M11 0.333344C12.4145 0.333344 13.771 0.895246 14.7712 1.89544C15.7714 2.89563 16.3333 4.25219 16.3333 5.66668C16.3333 7.08117 15.7714 8.43772 14.7712 9.43791C13.771 10.4381 12.4145 11 11 11C9.58551 11 8.22895 10.4381 7.22876 9.43791C6.22856 8.43772 5.66666 7.08117 5.66666 5.66668C5.66666 4.25219 6.22856 2.89563 7.22876 1.89544C8.22895 0.895246 9.58551 0.333344 11 0.333344ZM11 3.00001C10.2928 3.00001 9.61447 3.28096 9.11438 3.78106C8.61428 4.28116 8.33333 4.95943 8.33333 5.66668C8.33333 6.37392 8.61428 7.0522 9.11438 7.55229C9.61447 8.05239 10.2928 8.33334 11 8.33334C11.7072 8.33334 12.3855 8.05239 12.8856 7.55229C13.3857 7.0522 13.6667 6.37392 13.6667 5.66668C13.6667 4.95943 13.3857 4.28116 12.8856 3.78106C12.3855 3.28096 11.7072 3.00001 11 3.00001ZM11 12.3333C14.56 12.3333 21.6667 14.1067 21.6667 17.6667V21.6667H0.333328V17.6667C0.333328 14.1067 7.44 12.3333 11 12.3333ZM11 14.8667C7.04 14.8667 2.86666 16.8133 2.86666 17.6667V19.1333H19.1333V17.6667C19.1333 16.8133 14.96 14.8667 11 14.8667Z" fill="#604080"/>
</svg>
