<svg width="23" height="23" viewBox="0 0 23 23" fill="none" xmlns="http://www.w3.org/2000/svg">
<path d="M10.4588 4.97645H4.70707C4.27123 4.97645 3.85324 5.14959 3.54505 5.45778C3.23686 5.76597 3.06372 6.18396 3.06372 6.6198V18.1233C3.06372 18.5591 3.23686 18.9771 3.54505 19.2853C3.85324 19.5935 4.27123 19.7666 4.70707 19.7666H16.2105C16.6464 19.7666 17.0644 19.5935 17.3726 19.2853C17.6807 18.9771 17.8539 18.5591 17.8539 18.1233V12.3715M16.6214 3.74394C16.9483 3.41705 17.3916 3.23341 17.8539 3.23341C18.3162 3.23341 18.7595 3.41705 19.0864 3.74394C19.4133 4.07082 19.5969 4.51417 19.5969 4.97645C19.5969 5.43873 19.4133 5.88208 19.0864 6.20896L11.2805 14.0149L7.99377 14.8366L8.81545 11.5499L16.6214 3.74394Z" stroke="#79747E" stroke-width="1.37777" stroke-linecap="round" stroke-linejoin="round"/>
</svg>
